<?xml version="1.0" encoding="UTF-8"?>
<svg xmlns="http://www.w3.org/2000/svg" xmlns:xlink="http://www.w3.org/1999/xlink" width="299pt" height="97pt" viewBox="0 0 299 97" version="1.1">
<g id="surface1">
<path style=" stroke:none;fill-rule:nonzero;fill:rgb(19.215686%,32.941176%,43.921569%);fill-opacity:1;" d="M 48.933594 97 C 43.527344 97.003906 38.15625 96.113281 33.039062 94.363281 C 32.140625 93.972656 31.699219 92.949219 32.027344 92.019531 C 32.359375 91.09375 33.347656 90.582031 34.292969 90.851562 C 38.996094 92.503906 43.949219 93.355469 48.933594 93.359375 C 50.019531 93.378906 51.105469 93.335938 52.1875 93.234375 C 53.226562 93.164062 54.121094 93.953125 54.191406 94.992188 C 54.261719 96.03125 53.476562 96.929688 52.4375 97 C 51.273438 96.9375 50.101562 96.9375 48.933594 97 Z M 59.699219 95.746094 C 58.863281 95.757812 58.128906 95.183594 57.945312 94.363281 C 57.828125 93.882812 57.910156 93.371094 58.167969 92.949219 C 58.425781 92.523438 58.839844 92.222656 59.324219 92.105469 C 60.449219 91.855469 61.699219 91.476562 62.828125 91.101562 C 63.808594 90.847656 64.820312 91.410156 65.121094 92.382812 C 65.421875 93.355469 64.90625 94.394531 63.953125 94.742188 C 62.703125 95.117188 61.449219 95.492188 60.199219 95.746094 C 59.949219 95.621094 59.824219 95.746094 59.699219 95.746094 Z M 27.40625 91.617188 C 27.101562 91.589844 26.804688 91.507812 26.53125 91.363281 C 22.660156 89.347656 19.082031 86.816406 15.894531 83.835938 C 15.347656 83.402344 15.089844 82.699219 15.222656 82.011719 C 15.351562 81.328125 15.855469 80.773438 16.523438 80.574219 C 17.191406 80.378906 17.914062 80.570312 18.394531 81.074219 C 21.34375 83.816406 24.625 86.175781 28.160156 88.101562 C 29.050781 88.59375 29.382812 89.710938 28.910156 90.613281 C 28.65625 91.21875 28.0625 91.617188 27.40625 91.617188 Z M 71.339844 91.238281 C 70.660156 91.210938 70.042969 90.832031 69.710938 90.234375 C 69.238281 89.332031 69.570312 88.21875 70.460938 87.726562 C 73.953125 85.742188 77.1875 83.339844 80.097656 80.570312 C 80.824219 79.84375 82 79.84375 82.726562 80.570312 C 83.453125 81.300781 83.453125 82.480469 82.726562 83.207031 C 79.601562 86.222656 76.109375 88.835938 72.339844 90.988281 C 72.023438 91.125 71.683594 91.207031 71.339844 91.226562 Z M 85.980469 78.4375 C 85.578125 78.429688 85.183594 78.296875 84.855469 78.0625 C 84.445312 77.769531 84.171875 77.324219 84.101562 76.824219 C 84.03125 76.328125 84.167969 75.820312 84.480469 75.425781 C 88.101562 70.59375 90.738281 65.089844 92.238281 59.238281 C 92.480469 58.230469 93.492188 57.613281 94.492188 57.855469 C 95.496094 58.097656 96.113281 59.109375 95.871094 60.113281 C 94.289062 66.480469 91.4375 72.457031 87.484375 77.683594 C 87.136719 78.167969 86.574219 78.441406 85.980469 78.425781 Z M 11.386719 77.8125 C 10.792969 77.824219 10.230469 77.542969 9.886719 77.058594 C 9.105469 76.019531 8.394531 74.929688 7.757812 73.792969 C 7.304688 72.933594 7.601562 71.871094 8.433594 71.371094 C 9.265625 70.871094 10.34375 71.109375 10.886719 71.914062 C 11.511719 72.917969 12.136719 73.921875 12.890625 74.925781 C 13.476562 75.765625 13.3125 76.917969 12.511719 77.558594 C 12.152344 77.703125 11.773438 77.789062 11.386719 77.8125 Z M 5.878906 67.894531 C 5.125 67.90625 4.433594 67.460938 4.128906 66.765625 C 1.777344 60.988281 0.585938 54.796875 0.625 48.554688 L 0.625 47.691406 C 0.648438 46.660156 1.476562 45.835938 2.5 45.808594 C 3.527344 45.835938 4.351562 46.660156 4.378906 47.691406 L 4.378906 48.570312 C 4.382812 54.332031 5.484375 60.039062 7.632812 65.386719 C 7.996094 66.320312 7.554688 67.378906 6.632812 67.769531 C 6.394531 67.867188 6.136719 67.90625 5.878906 67.882812 Z M 95.242188 54.089844 L 95.117188 54.089844 C 94.117188 53.953125 93.371094 53.097656 93.367188 52.082031 C 93.46875 50.871094 93.511719 49.65625 93.492188 48.445312 L 93.492188 48.316406 C 93.492188 47.277344 94.332031 46.433594 95.367188 46.433594 C 96.40625 46.433594 97.246094 47.277344 97.246094 48.316406 L 97.246094 48.445312 C 97.246094 49.824219 97.246094 51.078125 97.121094 52.335938 C 97.082031 53.335938 96.242188 54.113281 95.242188 54.078125 Z M 3.125 42.53125 L 2.875 42.53125 C 2.386719 42.46875 1.941406 42.203125 1.65625 41.796875 C 1.371094 41.390625 1.269531 40.882812 1.375 40.398438 C 2.09375 36.097656 3.402344 31.917969 5.253906 27.972656 C 5.460938 27.519531 5.847656 27.167969 6.320312 27 C 6.792969 26.835938 7.3125 26.871094 7.757812 27.097656 C 8.210938 27.304688 8.5625 27.691406 8.726562 28.164062 C 8.894531 28.636719 8.859375 29.15625 8.632812 29.605469 C 6.917969 33.277344 5.699219 37.160156 5.003906 41.152344 C 4.726562 41.960938 3.980469 42.511719 3.125 42.53125 Z M 94.617188 41.527344 C 93.726562 41.503906 92.957031 40.890625 92.742188 40.023438 C 92.015625 36.042969 90.707031 32.195312 88.859375 28.601562 C 88.53125 27.992188 88.5625 27.25 88.945312 26.671875 C 89.324219 26.089844 89.992188 25.769531 90.679688 25.832031 C 91.371094 25.894531 91.96875 26.332031 92.238281 26.96875 C 94.246094 30.875 95.640625 35.066406 96.371094 39.394531 C 96.476562 39.878906 96.375 40.386719 96.085938 40.792969 C 95.800781 41.199219 95.359375 41.464844 94.867188 41.527344 C 94.867188 41.414062 94.742188 41.527344 94.617188 41.527344 Z M 87.109375 23.582031 C 86.515625 23.597656 85.953125 23.3125 85.605469 22.828125 C 82.136719 17.859375 77.710938 13.636719 72.589844 10.402344 C 71.789062 9.859375 71.550781 8.777344 72.050781 7.945312 C 72.546875 7.109375 73.609375 6.8125 74.46875 7.265625 C 80.042969 10.730469 84.859375 15.300781 88.609375 20.695312 C 88.902344 21.109375 89.015625 21.621094 88.921875 22.121094 C 88.828125 22.617188 88.535156 23.054688 88.109375 23.332031 C 87.820312 23.542969 87.460938 23.632812 87.109375 23.582031 Z M 11.261719 22.953125 C 10.855469 22.945312 10.464844 22.8125 10.136719 22.578125 C 9.726562 22.285156 9.453125 21.839844 9.382812 21.339844 C 9.3125 20.84375 9.449219 20.335938 9.761719 19.941406 C 10.511719 18.9375 11.386719 17.808594 12.136719 16.804688 C 12.792969 16.007812 13.972656 15.894531 14.765625 16.554688 C 15.5625 17.210938 15.671875 18.390625 15.015625 19.1875 C 14.265625 20.066406 13.515625 21.070312 12.765625 22.074219 C 12.472656 22.632812 11.890625 22.972656 11.261719 22.953125 Z M 19.023438 14.671875 C 18.5 14.648438 18.003906 14.425781 17.644531 14.042969 C 17.027344 13.234375 17.136719 12.085938 17.894531 11.40625 C 22.894531 7.136719 28.738281 3.96875 35.042969 2.121094 C 35.507812 1.976562 36.007812 2.03125 36.433594 2.269531 C 36.859375 2.503906 37.171875 2.90625 37.296875 3.375 C 37.4375 3.84375 37.382812 4.347656 37.148438 4.773438 C 36.910156 5.199219 36.511719 5.507812 36.042969 5.636719 C 30.238281 7.382812 24.867188 10.332031 20.273438 14.292969 C 19.890625 14.515625 19.460938 14.644531 19.023438 14.671875 Z M 66.832031 7.265625 C 66.574219 7.285156 66.316406 7.242188 66.082031 7.140625 C 64.957031 6.640625 63.828125 6.261719 62.703125 5.886719 C 61.726562 5.542969 61.183594 4.503906 61.449219 3.5 C 61.792969 2.523438 62.832031 1.976562 63.828125 2.246094 C 65.066406 2.628906 66.277344 3.089844 67.457031 3.628906 C 67.914062 3.800781 68.277344 4.15625 68.464844 4.605469 C 68.652344 5.054688 68.652344 5.5625 68.460938 6.011719 C 68.261719 6.75 67.59375 7.265625 66.832031 7.265625 Z M 42.175781 4.253906 C 41.230469 4.261719 40.425781 3.5625 40.300781 2.621094 C 40.21875 2.121094 40.351562 1.609375 40.65625 1.207031 C 40.964844 0.804688 41.421875 0.546875 41.925781 0.488281 C 46.242188 -0.117188 50.617188 -0.160156 54.941406 0.363281 C 55.445312 0.425781 55.902344 0.6875 56.207031 1.09375 C 56.511719 1.496094 56.644531 2.007812 56.570312 2.511719 C 56.527344 3.019531 56.273438 3.488281 55.867188 3.796875 C 55.460938 4.105469 54.941406 4.226562 54.441406 4.128906 C 50.449219 3.605469 46.40625 3.648438 42.425781 4.253906 Z M 42.175781 4.253906 "/>
<path style=" stroke:none;fill-rule:nonzero;fill:rgb(0%,69.411765%,72.54902%);fill-opacity:1;" d="M 34.542969 25.101562 C 33.84375 25.0625 33.195312 25.460938 32.914062 26.105469 C 32.535156 26.972656 32.363281 27.917969 32.414062 28.867188 C 32.363281 29.8125 32.535156 30.757812 32.914062 31.625 C 33.179688 32.28125 33.839844 32.6875 34.542969 32.628906 C 35.238281 32.667969 35.886719 32.269531 36.167969 31.625 C 36.550781 30.757812 36.722656 29.8125 36.667969 28.867188 C 36.722656 27.917969 36.550781 26.972656 36.167969 26.105469 C 35.886719 25.460938 35.238281 25.0625 34.542969 25.101562 Z M 34.542969 25.101562 "/>
<path style=" stroke:none;fill-rule:nonzero;fill:rgb(0%,69.411765%,72.54902%);fill-opacity:1;" d="M 41.675781 9.273438 C 41.625 10.222656 41.796875 11.167969 42.175781 12.035156 C 42.441406 12.691406 43.101562 13.097656 43.804688 13.039062 C 44.5 13.078125 45.148438 12.675781 45.429688 12.035156 C 45.8125 11.167969 45.984375 10.222656 45.929688 9.273438 C 45.953125 8.769531 45.910156 8.261719 45.804688 7.769531 C 44.304688 7.894531 42.925781 8.019531 41.550781 8.269531 C 41.640625 8.597656 41.683594 8.9375 41.675781 9.273438 Z M 41.675781 9.273438 "/>
<path style=" stroke:none;fill-rule:nonzero;fill:rgb(0%,69.411765%,72.54902%);fill-opacity:1;" d="M 58.949219 87.585938 C 59 86.640625 58.828125 85.695312 58.445312 84.828125 C 58.179688 84.171875 57.523438 83.765625 56.820312 83.824219 C 56.121094 83.785156 55.472656 84.183594 55.191406 84.828125 C 54.8125 85.695312 54.640625 86.640625 54.691406 87.585938 C 54.671875 87.96875 54.714844 88.351562 54.816406 88.71875 C 56.320312 88.464844 57.695312 88.214844 59.199219 87.839844 C 58.949219 87.851562 58.949219 87.714844 58.949219 87.585938 Z M 58.949219 87.585938 "/>
<path style=" stroke:none;fill-rule:nonzero;fill:rgb(0%,69.411765%,72.54902%);fill-opacity:1;" d="M 29.910156 44.664062 C 29.210938 44.628906 28.5625 45.027344 28.285156 45.671875 C 27.902344 46.539062 27.730469 47.484375 27.78125 48.429688 C 27.730469 49.378906 27.902344 50.324219 28.285156 51.191406 C 28.550781 51.847656 29.207031 52.253906 29.910156 52.195312 C 30.609375 52.234375 31.257812 51.835938 31.539062 51.191406 C 31.917969 50.324219 32.089844 49.378906 32.039062 48.429688 C 32.089844 47.484375 31.917969 46.539062 31.539062 45.671875 C 31.230469 45.050781 30.601562 44.660156 29.910156 44.664062 Z M 29.910156 44.664062 "/>
<path style=" stroke:none;fill-rule:nonzero;fill:rgb(0%,69.411765%,72.54902%);fill-opacity:1;" d="M 21.648438 64.246094 C 20.953125 64.207031 20.304688 64.605469 20.023438 65.25 C 19.355469 67.027344 19.355469 68.992188 20.023438 70.769531 C 20.289062 71.425781 20.949219 71.832031 21.648438 71.773438 C 22.347656 71.8125 22.996094 71.414062 23.277344 70.769531 C 23.945312 68.992188 23.945312 67.027344 23.277344 65.25 C 22.996094 64.605469 22.347656 64.207031 21.648438 64.246094 Z M 21.648438 64.246094 "/>
<path style=" stroke:none;fill-rule:nonzero;fill:rgb(0%,69.411765%,72.54902%);fill-opacity:1;" d="M 32.664062 12.035156 C 32.808594 11.664062 32.933594 11.289062 33.039062 10.90625 C 31.914062 11.40625 30.785156 11.910156 29.660156 12.539062 C 29.984375 12.882812 30.441406 13.066406 30.910156 13.039062 C 31.664062 13.1875 32.410156 12.761719 32.664062 12.035156 Z M 32.664062 12.035156 "/>
<path style=" stroke:none;fill-rule:nonzero;fill:rgb(0%,69.411765%,72.54902%);fill-opacity:1;" d="M 46.054688 87.585938 C 46.109375 86.640625 45.9375 85.695312 45.554688 84.828125 C 45.289062 84.171875 44.632812 83.765625 43.929688 83.824219 C 43.230469 83.785156 42.582031 84.183594 42.300781 84.828125 C 41.921875 85.695312 41.75 86.640625 41.800781 87.585938 L 41.800781 88.464844 C 43.175781 88.71875 44.679688 88.84375 46.054688 88.96875 Z M 46.054688 87.585938 "/>
<path style=" stroke:none;fill-rule:nonzero;fill:rgb(0%,69.411765%,72.54902%);fill-opacity:1;" d="M 86.609375 45.671875 C 86.226562 46.539062 86.054688 47.484375 86.105469 48.429688 C 86.054688 49.378906 86.226562 50.324219 86.609375 51.191406 C 86.875 51.847656 87.53125 52.253906 88.234375 52.195312 C 88.640625 52.1875 89.03125 52.054688 89.359375 51.820312 C 89.46875 50.652344 89.507812 49.476562 89.484375 48.304688 C 89.503906 47.132812 89.464844 45.960938 89.359375 44.792969 C 89.050781 44.519531 88.644531 44.382812 88.234375 44.414062 C 87.570312 44.644531 87 45.085938 86.609375 45.671875 Z M 86.609375 45.671875 "/>
<path style=" stroke:none;fill-rule:nonzero;fill:rgb(0%,69.411765%,72.54902%);fill-opacity:1;" d="M 80.097656 25.101562 C 79.402344 25.0625 78.753906 25.460938 78.472656 26.105469 C 78.089844 26.972656 77.921875 27.917969 77.972656 28.867188 C 77.921875 29.8125 78.089844 30.757812 78.472656 31.625 C 78.738281 32.28125 79.398438 32.6875 80.097656 32.628906 C 80.796875 32.667969 81.445312 32.269531 81.726562 31.625 C 82.105469 30.757812 82.277344 29.8125 82.226562 28.867188 C 82.277344 27.917969 82.105469 26.972656 81.726562 26.105469 C 81.445312 25.460938 80.796875 25.0625 80.097656 25.101562 Z M 80.097656 25.101562 "/>
<path style=" stroke:none;fill-rule:nonzero;fill:rgb(0%,69.411765%,72.54902%);fill-opacity:1;" d="M 85.355469 64.621094 L 83.226562 64.621094 L 83.226562 62.488281 L 87.109375 62.488281 C 88.097656 59.859375 88.769531 57.117188 89.109375 54.328125 L 88.234375 54.328125 C 86.859375 54.460938 85.523438 53.84375 84.730469 52.710938 C 83.933594 51.433594 83.539062 49.949219 83.605469 48.445312 C 83.523438 46.9375 83.917969 45.445312 84.730469 44.175781 C 85.539062 43.058594 86.863281 42.441406 88.234375 42.546875 L 89.109375 42.546875 C 88.492188 37.929688 87.050781 33.46875 84.855469 29.367188 C 84.785156 30.695312 84.398438 31.984375 83.730469 33.132812 C 82.921875 34.25 81.597656 34.867188 80.222656 34.765625 C 78.847656 34.894531 77.507812 34.269531 76.71875 33.132812 C 75.921875 31.855469 75.53125 30.371094 75.59375 28.867188 C 75.511719 27.359375 75.90625 25.867188 76.71875 24.597656 C 77.527344 23.480469 78.851562 22.863281 80.222656 22.964844 L 80.726562 22.964844 C 78.308594 19.957031 75.484375 17.296875 72.339844 15.058594 C 71.257812 14.949219 70.265625 14.40625 69.585938 13.554688 C 69.460938 13.429688 69.460938 13.304688 69.335938 13.175781 C 67.707031 12.300781 66.082031 11.421875 64.453125 10.667969 L 64.453125 14.933594 L 62.078125 14.933594 L 62.078125 9.777344 C 60.195312 9.140625 58.269531 8.640625 56.320312 8.269531 L 56.320312 14.921875 L 53.941406 14.921875 L 53.941406 7.894531 C 52.324219 7.683594 50.691406 7.601562 49.058594 7.644531 L 48.558594 7.644531 C 48.664062 8.136719 48.707031 8.644531 48.683594 9.148438 C 48.765625 10.65625 48.371094 12.148438 47.558594 13.417969 C 46.753906 14.535156 45.425781 15.160156 44.054688 15.058594 C 42.675781 15.191406 41.339844 14.566406 40.550781 13.429688 C 39.753906 12.152344 39.359375 10.664062 39.421875 9.160156 L 39.421875 8.785156 C 38.296875 9.035156 37.042969 9.414062 35.917969 9.789062 C 35.847656 11.078125 35.460938 12.328125 34.792969 13.429688 C 33.984375 14.542969 32.660156 15.160156 31.289062 15.058594 C 30.011719 15.132812 28.769531 14.625 27.90625 13.679688 C 23.898438 16.199219 20.34375 19.382812 17.394531 23.09375 L 18.019531 23.09375 L 18.019531 34.511719 L 15.644531 34.511719 L 15.644531 25.601562 C 12.199219 30.71875 9.972656 36.558594 9.132812 42.671875 L 13.390625 42.671875 L 13.390625 54.089844 L 11.011719 54.089844 L 11.011719 44.804688 L 8.507812 44.804688 C 8.402344 45.972656 8.359375 47.144531 8.382812 48.316406 C 8.378906 53.074219 9.226562 57.792969 10.886719 62.25 L 13.140625 62.25 L 13.140625 67.269531 C 17.460938 75.484375 24.433594 81.984375 32.914062 85.71875 L 32.914062 84.085938 L 30.785156 84.085938 L 30.785156 81.953125 L 35.417969 81.953125 L 35.417969 86.722656 C 36.726562 87.214844 38.066406 87.632812 39.421875 87.976562 L 39.421875 87.601562 C 39.339844 86.09375 39.734375 84.601562 40.550781 83.332031 C 41.355469 82.21875 42.683594 81.597656 44.054688 81.703125 C 45.429688 81.570312 46.769531 82.195312 47.558594 83.332031 C 48.355469 84.609375 48.746094 86.097656 48.683594 87.601562 C 48.707031 88.105469 48.664062 88.609375 48.558594 89.105469 L 49.058594 89.105469 C 50.105469 89.128906 51.148438 89.085938 52.1875 88.980469 C 52.1875 88.476562 52.0625 88.101562 52.0625 87.601562 C 51.980469 86.09375 52.375 84.601562 53.191406 83.332031 C 53.996094 82.21875 55.324219 81.597656 56.695312 81.703125 C 58.070312 81.570312 59.410156 82.195312 60.199219 83.332031 C 60.992188 84.46875 61.390625 85.835938 61.324219 87.222656 C 63.121094 86.621094 64.875 85.910156 66.582031 85.089844 L 66.582031 84.085938 L 64.453125 84.085938 L 64.453125 81.953125 L 69.085938 81.953125 L 69.085938 83.835938 C 76.097656 79.800781 81.757812 73.773438 85.355469 66.515625 Z M 66.832031 23.207031 L 71.464844 23.207031 L 71.464844 34.625 L 69.085938 34.625 L 69.085938 25.339844 L 66.957031 25.339844 L 66.957031 23.207031 Z M 66.832031 42.785156 L 71.464844 42.785156 L 71.464844 54.203125 L 69.085938 54.203125 L 69.085938 44.917969 L 66.957031 44.917969 L 66.957031 42.785156 Z M 58.695312 23.207031 L 63.328125 23.207031 L 63.328125 34.625 L 60.949219 34.625 L 60.949219 25.339844 L 58.824219 25.339844 L 58.824219 23.207031 Z M 21.273438 23.207031 L 25.90625 23.207031 L 25.90625 34.625 L 23.527344 34.625 L 23.527344 25.339844 L 21.398438 25.339844 L 21.398438 23.207031 Z M 16.644531 42.785156 L 21.273438 42.785156 L 21.273438 54.203125 L 18.898438 54.203125 L 18.898438 44.917969 L 16.769531 44.917969 L 16.769531 42.785156 Z M 25.28125 72.277344 C 24.472656 73.390625 23.148438 74.007812 21.773438 73.90625 C 20.398438 74.039062 19.058594 73.414062 18.269531 72.277344 C 17.472656 71 17.082031 69.511719 17.144531 68.007812 C 17.0625 66.503906 17.457031 65.011719 18.269531 63.742188 C 19.078125 62.625 20.402344 62.007812 21.773438 62.109375 C 23.152344 61.980469 24.492188 62.605469 25.28125 63.742188 C 26.078125 65.015625 26.46875 66.503906 26.40625 68.007812 C 26.503906 69.515625 26.109375 71.015625 25.28125 72.277344 Z M 34.039062 73.78125 L 31.664062 73.78125 L 31.664062 64.496094 L 29.535156 64.496094 L 29.535156 62.363281 L 34.167969 62.363281 L 34.167969 73.78125 Z M 33.414062 52.824219 C 32.609375 53.941406 31.28125 54.558594 29.910156 54.453125 C 28.535156 54.585938 27.195312 53.960938 26.40625 52.824219 C 25.609375 51.546875 25.214844 50.058594 25.28125 48.554688 C 25.199219 47.050781 25.59375 45.558594 26.40625 44.289062 C 27.214844 43.179688 28.542969 42.566406 29.910156 42.671875 C 31.285156 42.539062 32.625 43.164062 33.414062 44.300781 C 34.210938 45.578125 34.605469 47.066406 34.542969 48.570312 C 34.601562 50.070312 34.210938 51.550781 33.414062 52.824219 Z M 34.542969 34.75 C 33.164062 34.882812 31.824219 34.257812 31.039062 33.121094 C 30.238281 31.84375 29.847656 30.355469 29.910156 28.851562 C 29.828125 27.347656 30.222656 25.855469 31.039062 24.585938 C 31.84375 23.46875 33.171875 22.851562 34.542969 22.953125 C 35.917969 22.824219 37.257812 23.449219 38.046875 24.585938 C 38.84375 25.859375 39.234375 27.347656 39.171875 28.851562 C 39.253906 30.359375 38.859375 31.851562 38.046875 33.121094 C 37.257812 34.257812 35.917969 34.882812 34.542969 34.75 Z M 42.175781 73.78125 L 39.796875 73.78125 L 39.796875 64.496094 L 37.671875 64.496094 L 37.671875 62.363281 L 42.300781 62.363281 L 42.300781 73.78125 Z M 42.175781 54.203125 L 39.796875 54.203125 L 39.796875 44.917969 L 37.671875 44.917969 L 37.671875 42.785156 L 42.300781 42.785156 L 42.300781 54.203125 Z M 42.300781 25.464844 L 42.300781 23.332031 L 46.933594 23.332031 L 46.933594 34.75 L 44.554688 34.75 L 44.554688 25.464844 Z M 50.4375 73.78125 L 48.058594 73.78125 L 48.058594 64.496094 L 45.929688 64.496094 L 45.929688 62.363281 L 50.5625 62.363281 L 50.5625 73.78125 Z M 50.4375 54.203125 L 48.058594 54.203125 L 48.058594 44.917969 L 45.929688 44.917969 L 45.929688 42.785156 L 50.5625 42.785156 L 50.5625 54.203125 Z M 52.691406 34.625 L 52.691406 25.339844 L 50.5625 25.339844 L 50.5625 23.207031 L 55.191406 23.207031 L 55.191406 34.625 Z M 58.570312 73.78125 L 56.195312 73.78125 L 56.195312 64.496094 L 54.066406 64.496094 L 54.066406 62.363281 L 58.695312 62.363281 L 58.695312 73.78125 Z M 59.074219 54.328125 C 57.699219 54.460938 56.359375 53.84375 55.566406 52.710938 C 54.769531 51.433594 54.378906 49.949219 54.441406 48.445312 C 54.359375 46.9375 54.753906 45.445312 55.566406 44.175781 C 56.375 43.058594 57.703125 42.441406 59.074219 42.546875 C 60.449219 42.414062 61.789062 43.039062 62.578125 44.175781 C 63.375 45.453125 63.765625 46.941406 63.703125 48.445312 C 63.785156 49.949219 63.390625 51.441406 62.578125 52.710938 C 61.785156 53.84375 60.445312 54.460938 59.074219 54.328125 Z M 70.835938 72.277344 C 70.03125 73.390625 68.703125 74.007812 67.332031 73.90625 C 65.957031 74.039062 64.617188 73.414062 63.828125 72.277344 C 63.03125 71 62.640625 69.511719 62.703125 68.007812 C 62.621094 66.503906 63.015625 65.011719 63.828125 63.742188 C 64.636719 62.625 65.960938 62.007812 67.332031 62.109375 C 68.710938 61.980469 70.046875 62.605469 70.835938 63.742188 C 71.636719 65.015625 72.027344 66.503906 71.964844 68.007812 C 72.0625 69.515625 71.667969 71.015625 70.835938 72.277344 Z M 79.597656 73.78125 L 77.222656 73.78125 L 77.222656 64.496094 L 75.09375 64.496094 L 75.09375 62.363281 L 79.722656 62.363281 L 79.722656 73.78125 Z M 79.597656 54.203125 L 77.222656 54.203125 L 77.222656 44.917969 L 75.09375 44.917969 L 75.09375 42.785156 L 79.722656 42.785156 L 79.722656 54.203125 Z M 79.597656 54.203125 "/>
<path style=" stroke:none;fill-rule:nonzero;fill:rgb(0%,69.411765%,72.54902%);fill-opacity:1;" d="M 59.074219 44.664062 C 58.375 44.628906 57.726562 45.027344 57.445312 45.671875 C 57.066406 46.539062 56.894531 47.484375 56.945312 48.429688 C 56.894531 49.378906 57.066406 50.324219 57.445312 51.191406 C 57.710938 51.847656 58.371094 52.253906 59.074219 52.195312 C 59.769531 52.234375 60.417969 51.835938 60.699219 51.191406 C 61.082031 50.324219 61.253906 49.378906 61.199219 48.429688 C 61.253906 47.484375 61.082031 46.539062 60.699219 45.671875 C 60.417969 45.027344 59.769531 44.628906 59.074219 44.664062 Z M 59.074219 44.664062 "/>
<path style=" stroke:none;fill-rule:nonzero;fill:rgb(0%,69.411765%,72.54902%);fill-opacity:1;" d="M 67.332031 64.246094 C 66.632812 64.207031 65.984375 64.613281 65.707031 65.261719 C 65.039062 67.039062 65.039062 69.003906 65.707031 70.78125 C 65.972656 71.4375 66.628906 71.84375 67.332031 71.785156 C 68.03125 71.824219 68.679688 71.425781 68.960938 70.78125 C 69.628906 69.003906 69.628906 67.039062 68.960938 65.261719 C 68.65625 64.636719 68.023438 64.242188 67.332031 64.246094 Z M 67.332031 64.246094 "/>
<path style=" stroke:none;fill-rule:nonzero;fill:rgb(12.54902%,16.470588%,26.666667%);fill-opacity:1;" d="M 116.019531 43.789062 L 116.019531 16.316406 L 125.53125 16.316406 C 127.511719 16.265625 129.476562 16.648438 131.289062 17.445312 C 132.824219 18.15625 134.222656 19.132812 135.417969 20.332031 C 136.585938 21.578125 137.445312 23.082031 137.921875 24.722656 C 138.488281 26.46875 138.78125 28.289062 138.800781 30.121094 C 138.855469 32.039062 138.558594 33.953125 137.921875 35.769531 C 137.320312 37.378906 136.429688 38.867188 135.292969 40.160156 C 134.136719 41.429688 132.671875 42.382812 131.039062 42.921875 C 129.28125 43.589844 127.414062 43.929688 125.53125 43.925781 L 116.019531 43.925781 Z M 135.292969 29.980469 C 135.289062 28.539062 135.078125 27.101562 134.667969 25.714844 C 134.292969 24.460938 133.652344 23.308594 132.792969 22.328125 C 131.90625 21.40625 130.839844 20.679688 129.664062 20.191406 C 128.347656 19.679688 126.945312 19.421875 125.53125 19.441406 L 119.523438 19.441406 L 119.523438 40.777344 L 125.53125 40.777344 C 126.984375 40.800781 128.429688 40.546875 129.789062 40.023438 C 130.980469 39.566406 132.019531 38.78125 132.792969 37.761719 C 133.5625 36.722656 134.195312 35.582031 134.667969 34.375 C 135.058594 32.941406 135.269531 31.46875 135.292969 29.980469 Z M 135.292969 29.980469 "/>
<path style=" stroke:none;fill-rule:nonzero;fill:rgb(12.54902%,16.470588%,26.666667%);fill-opacity:1;" d="M 143.179688 19.691406 L 143.179688 15.425781 L 146.558594 15.425781 L 146.558594 19.691406 Z M 143.179688 43.789062 L 143.179688 23.582031 L 146.558594 23.582031 L 146.558594 43.789062 Z M 143.179688 43.789062 "/>
<path style=" stroke:none;fill-rule:nonzero;fill:rgb(12.54902%,16.470588%,26.666667%);fill-opacity:1;" d="M 149.4375 50.941406 C 148.589844 50.949219 147.742188 50.820312 146.933594 50.566406 C 146.136719 50.320312 145.40625 49.890625 144.804688 49.308594 L 146.433594 47.050781 C 146.769531 47.417969 147.203125 47.679688 147.683594 47.804688 C 148.132812 47.9375 148.59375 48.019531 149.0625 48.054688 C 149.488281 48.019531 149.90625 47.933594 150.3125 47.804688 C 150.6875 47.671875 151.03125 47.457031 151.316406 47.175781 C 151.59375 46.863281 151.847656 46.527344 152.066406 46.171875 C 152.21875 45.726562 152.304688 45.261719 152.316406 44.792969 L 152.316406 23.707031 L 155.695312 23.707031 L 155.695312 44.664062 C 155.734375 45.570312 155.5625 46.472656 155.195312 47.300781 C 154.855469 48.082031 154.390625 48.804688 153.816406 49.433594 C 153.234375 50.007812 152.554688 50.472656 151.816406 50.816406 C 151.066406 50.816406 150.3125 50.941406 149.4375 50.941406 Z M 152.316406 19.691406 L 152.316406 15.425781 L 155.695312 15.425781 L 155.695312 19.691406 Z M 152.316406 19.691406 "/>
<path style=" stroke:none;fill-rule:nonzero;fill:rgb(12.54902%,16.470588%,26.666667%);fill-opacity:1;" d="M 161.203125 19.691406 L 161.203125 15.425781 L 164.582031 15.425781 L 164.582031 19.691406 Z M 161.203125 43.789062 L 161.203125 23.582031 L 164.582031 23.582031 L 164.582031 43.789062 Z M 161.203125 43.789062 "/>
<path style=" stroke:none;fill-rule:nonzero;fill:rgb(12.54902%,16.470588%,26.666667%);fill-opacity:1;" d="M 180.601562 42.785156 L 179.851562 43.160156 L 178.722656 43.535156 C 178.347656 43.660156 177.847656 43.789062 177.347656 43.914062 C 176.8125 44.023438 176.265625 44.0625 175.722656 44.039062 C 174.5625 44.03125 173.429688 43.683594 172.464844 43.035156 C 171.496094 42.246094 170.976562 41.019531 171.089844 39.769531 L 171.089844 26.089844 L 168.335938 26.089844 L 168.335938 23.457031 L 171.089844 23.457031 L 171.089844 16.679688 L 174.46875 16.679688 L 174.46875 23.457031 L 178.976562 23.457031 L 178.976562 26.089844 L 174.46875 26.089844 L 174.46875 38.640625 C 174.425781 39.277344 174.707031 39.894531 175.21875 40.273438 C 175.648438 40.605469 176.179688 40.78125 176.722656 40.777344 C 177.367188 40.773438 178.003906 40.644531 178.597656 40.398438 C 179.101562 40.148438 179.476562 40.023438 179.726562 39.898438 Z M 180.601562 42.785156 "/>
<path style=" stroke:none;fill-rule:nonzero;fill:rgb(12.54902%,16.470588%,26.666667%);fill-opacity:1;" d="M 188.988281 44.164062 C 188.085938 44.203125 187.183594 44.03125 186.359375 43.660156 C 185.5625 43.351562 184.839844 42.882812 184.230469 42.28125 C 183.621094 41.730469 183.152344 41.042969 182.855469 40.273438 C 182.496094 39.488281 182.328125 38.628906 182.355469 37.761719 C 182.367188 36.890625 182.582031 36.03125 182.980469 35.253906 C 183.421875 34.46875 184.015625 33.785156 184.730469 33.246094 C 185.5625 32.65625 186.496094 32.230469 187.484375 31.992188 C 188.585938 31.683594 189.722656 31.515625 190.863281 31.488281 C 191.871094 31.507812 192.875 31.59375 193.867188 31.738281 C 194.78125 31.839844 195.671875 32.09375 196.496094 32.492188 L 196.496094 30.859375 C 196.566406 29.433594 196.070312 28.035156 195.121094 26.96875 C 194.054688 25.9375 192.589844 25.433594 191.117188 25.589844 C 188.789062 25.683594 186.554688 26.519531 184.730469 27.972656 L 183.605469 25.714844 C 185.910156 24.0625 188.660156 23.144531 191.492188 23.078125 C 193.769531 22.96875 196.007812 23.734375 197.75 25.214844 C 199.332031 26.800781 200.152344 28.996094 200 31.238281 L 200 39.519531 C 200 40.273438 200.378906 40.777344 201.128906 40.777344 L 201.128906 43.660156 C 200.753906 43.660156 200.503906 43.789062 200.25 43.789062 L 199.5 43.789062 C 198.898438 43.792969 198.316406 43.566406 197.875 43.160156 C 197.480469 42.746094 197.21875 42.21875 197.121094 41.652344 L 196.996094 40.273438 C 196.144531 41.488281 194.976562 42.441406 193.617188 43.035156 C 192.175781 43.746094 190.59375 44.132812 188.988281 44.164062 Z M 189.863281 41.527344 C 191.019531 41.527344 192.164062 41.3125 193.242188 40.902344 C 194.171875 40.527344 194.988281 39.921875 195.621094 39.144531 C 196.0625 38.761719 196.332031 38.222656 196.371094 37.636719 L 196.371094 34.625 C 194.738281 33.980469 192.996094 33.640625 191.242188 33.621094 C 189.777344 33.539062 188.328125 33.933594 187.109375 34.75 C 186.078125 35.335938 185.449219 36.449219 185.484375 37.636719 C 185.472656 38.203125 185.601562 38.765625 185.859375 39.269531 C 186.078125 39.734375 186.375 40.160156 186.734375 40.523438 C 187.144531 40.886719 187.609375 41.183594 188.113281 41.402344 C 188.6875 41.511719 189.277344 41.554688 189.863281 41.527344 Z M 189.863281 41.527344 "/>
<path style=" stroke:none;fill-rule:nonzero;fill:rgb(12.54902%,16.470588%,26.666667%);fill-opacity:1;" d="M 205.257812 15.425781 L 208.636719 15.425781 L 208.636719 38.515625 C 208.613281 39.160156 208.835938 39.789062 209.261719 40.273438 C 209.707031 40.679688 210.289062 40.90625 210.890625 40.902344 C 211.230469 40.914062 211.566406 40.871094 211.890625 40.777344 L 213.019531 40.398438 L 213.519531 43.160156 C 212.894531 43.410156 212.265625 43.535156 211.515625 43.789062 C 210.855469 43.917969 210.1875 44 209.515625 44.039062 C 208.355469 44.148438 207.207031 43.734375 206.382812 42.910156 C 205.5625 42.082031 205.148438 40.933594 205.257812 39.769531 Z M 205.257812 15.425781 "/>
<path style=" stroke:none;fill-rule:nonzero;fill:rgb(12.54902%,16.470588%,26.666667%);fill-opacity:1;" d="M 246.5625 36.632812 C 246.546875 37.628906 246.332031 38.609375 245.933594 39.519531 C 245.535156 40.402344 244.9375 41.175781 244.183594 41.78125 C 243.449219 42.40625 242.597656 42.875 241.679688 43.160156 C 240.675781 43.519531 239.617188 43.691406 238.550781 43.660156 L 225.535156 43.660156 L 225.535156 16.175781 L 239.175781 16.175781 C 240.089844 16.175781 240.988281 16.390625 241.804688 16.804688 C 242.554688 17.238281 243.230469 17.789062 243.808594 18.4375 C 244.371094 19.097656 244.792969 19.867188 245.058594 20.695312 C 245.34375 21.503906 245.515625 22.347656 245.558594 23.207031 C 245.554688 24.527344 245.210938 25.824219 244.558594 26.96875 C 243.886719 28.121094 242.882812 29.039062 241.679688 29.605469 C 243.195312 30.027344 244.519531 30.957031 245.433594 32.242188 C 246.144531 33.597656 246.53125 35.101562 246.5625 36.632812 Z M 228.914062 19.1875 L 228.914062 28.351562 L 237.675781 28.351562 C 238.277344 28.347656 238.875 28.21875 239.425781 27.972656 C 239.933594 27.710938 240.398438 27.375 240.804688 26.96875 C 241.195312 26.53125 241.492188 26.019531 241.679688 25.464844 C 241.9375 24.914062 242.0625 24.3125 242.054688 23.707031 C 242.035156 23.074219 241.949219 22.441406 241.804688 21.824219 C 241.589844 21.28125 241.292969 20.773438 240.929688 20.320312 C 240.570312 19.917969 240.144531 19.578125 239.675781 19.316406 C 239.171875 19.058594 238.613281 18.929688 238.050781 18.9375 L 228.914062 18.9375 Z M 243.054688 36.007812 C 243.066406 35.398438 242.9375 34.800781 242.679688 34.25 C 242.492188 33.691406 242.195312 33.179688 241.804688 32.742188 C 241.433594 32.300781 240.960938 31.957031 240.429688 31.738281 C 239.878906 31.480469 239.28125 31.355469 238.675781 31.363281 L 228.789062 31.363281 L 228.789062 40.777344 L 238.300781 40.777344 C 238.90625 40.785156 239.503906 40.65625 240.050781 40.398438 C 240.558594 40.136719 241.023438 39.796875 241.429688 39.394531 C 241.859375 38.964844 242.203125 38.453125 242.429688 37.890625 C 242.859375 37.355469 243.082031 36.6875 243.054688 36.007812 Z M 243.054688 36.007812 "/>
<path style=" stroke:none;fill-rule:nonzero;fill:rgb(12.54902%,16.470588%,26.666667%);fill-opacity:1;" d="M 250.816406 19.691406 L 250.816406 15.425781 L 254.195312 15.425781 L 254.195312 19.691406 Z M 250.816406 43.789062 L 250.816406 23.582031 L 254.195312 23.582031 L 254.195312 43.789062 Z M 250.816406 43.789062 "/>
<path style=" stroke:none;fill-rule:nonzero;fill:rgb(12.54902%,16.470588%,26.666667%);fill-opacity:1;" d="M 259.828125 15.425781 L 263.207031 15.425781 L 263.207031 38.515625 C 263.183594 39.160156 263.40625 39.789062 263.832031 40.273438 C 264.277344 40.679688 264.859375 40.90625 265.460938 40.902344 C 265.796875 40.914062 266.136719 40.871094 266.460938 40.777344 L 267.585938 40.398438 L 268.089844 43.160156 C 267.460938 43.410156 266.835938 43.535156 266.085938 43.789062 C 265.425781 43.917969 264.753906 44 264.082031 44.039062 C 262.925781 44.148438 261.777344 43.734375 260.953125 42.910156 C 260.132812 42.082031 259.71875 40.933594 259.828125 39.769531 Z M 259.828125 15.425781 "/>
<path style=" stroke:none;fill-rule:nonzero;fill:rgb(12.54902%,16.470588%,26.666667%);fill-opacity:1;" d="M 278.851562 44.039062 C 277.546875 44.078125 276.25 43.777344 275.097656 43.160156 C 273.996094 42.550781 272.984375 41.789062 272.09375 40.902344 C 271.234375 39.964844 270.589844 38.851562 270.214844 37.636719 C 269.753906 36.394531 269.542969 35.074219 269.589844 33.746094 C 269.605469 32.386719 269.816406 31.03125 270.214844 29.730469 C 270.691406 28.523438 271.320312 27.382812 272.09375 26.34375 C 272.890625 25.351562 273.921875 24.574219 275.097656 24.082031 C 276.273438 23.527344 277.550781 23.230469 278.851562 23.207031 C 280.410156 23.140625 281.945312 23.578125 283.230469 24.460938 C 284.453125 25.308594 285.515625 26.371094 286.359375 27.597656 L 286.359375 23.582031 L 289.363281 23.582031 L 289.363281 43.660156 C 289.410156 44.957031 289.152344 46.246094 288.613281 47.425781 C 288.117188 48.53125 287.339844 49.480469 286.359375 50.1875 C 285.410156 50.992188 284.300781 51.589844 283.105469 51.945312 C 281.808594 52.347656 280.460938 52.558594 279.101562 52.574219 C 277.164062 52.644531 275.234375 52.261719 273.46875 51.457031 C 272.035156 50.648438 270.796875 49.535156 269.839844 48.191406 L 271.84375 46.433594 C 272.605469 47.601562 273.695312 48.519531 274.972656 49.070312 C 276.261719 49.683594 277.675781 49.988281 279.101562 49.949219 C 279.992188 49.949219 280.875 49.820312 281.730469 49.574219 C 282.523438 49.378906 283.253906 48.992188 283.859375 48.445312 C 284.488281 47.933594 285.003906 47.292969 285.359375 46.5625 C 285.742188 45.691406 285.914062 44.746094 285.859375 43.800781 L 285.859375 40.285156 C 285.472656 40.886719 285.007812 41.433594 284.484375 41.917969 C 283.953125 42.40625 283.363281 42.828125 282.730469 43.171875 C 282.121094 43.550781 281.4375 43.808594 280.730469 43.925781 C 280.355469 43.925781 279.601562 44.039062 278.851562 44.039062 Z M 279.851562 41.152344 C 280.578125 41.148438 281.296875 41.023438 281.980469 40.777344 C 282.632812 40.488281 283.257812 40.15625 283.859375 39.769531 C 284.441406 39.398438 284.914062 38.878906 285.234375 38.265625 C 285.5625 37.761719 285.816406 37.210938 285.984375 36.632812 L 285.984375 30.859375 C 285.761719 30.152344 285.375 29.507812 284.859375 28.976562 C 284.421875 28.414062 283.917969 27.910156 283.355469 27.472656 C 282.773438 27.0625 282.144531 26.726562 281.480469 26.46875 C 280.839844 26.222656 280.164062 26.09375 279.476562 26.089844 C 278.523438 26.089844 277.582031 26.304688 276.722656 26.71875 C 275.933594 27.195312 275.214844 27.789062 274.597656 28.476562 C 273.992188 29.222656 273.527344 30.074219 273.21875 30.984375 C 272.933594 31.878906 272.765625 32.808594 272.71875 33.746094 C 272.691406 34.734375 272.863281 35.714844 273.21875 36.632812 C 273.601562 37.5 274.105469 38.300781 274.722656 39.019531 C 275.34375 39.667969 276.0625 40.21875 276.847656 40.648438 C 277.816406 40.980469 278.832031 41.148438 279.851562 41.152344 Z M 279.851562 41.152344 "/>
<path style=" stroke:none;fill-rule:nonzero;fill:rgb(12.54902%,16.470588%,26.666667%);fill-opacity:1;" d="M 294.996094 19.691406 L 294.996094 15.425781 L 298.375 15.425781 L 298.375 19.691406 Z M 294.996094 43.789062 L 294.996094 23.582031 L 298.375 23.582031 L 298.375 43.789062 Z M 294.996094 43.789062 "/>
<path style=" stroke:none;fill-rule:nonzero;fill:rgb(12.54902%,16.470588%,26.666667%);fill-opacity:1;" d="M 116.019531 83.824219 L 116.019531 56.335938 L 125.53125 56.335938 C 127.511719 56.285156 129.476562 56.671875 131.289062 57.46875 C 132.824219 58.175781 134.222656 59.15625 135.417969 60.355469 C 136.585938 61.601562 137.445312 63.105469 137.921875 64.746094 C 138.488281 66.488281 138.78125 68.308594 138.800781 70.144531 C 138.855469 72.0625 138.558594 73.976562 137.921875 75.789062 C 137.320312 77.402344 136.429688 78.890625 135.292969 80.183594 C 134.136719 81.453125 132.671875 82.40625 131.039062 82.945312 C 129.28125 83.613281 127.414062 83.953125 125.53125 83.949219 L 116.019531 83.949219 Z M 135.292969 70.015625 C 135.289062 68.574219 135.078125 67.136719 134.667969 65.75 C 134.292969 64.496094 133.652344 63.339844 132.792969 62.363281 C 131.90625 61.441406 130.839844 60.714844 129.664062 60.226562 C 128.347656 59.714844 126.945312 59.457031 125.53125 59.476562 L 119.523438 59.476562 L 119.523438 80.808594 L 125.53125 80.808594 C 126.984375 80.835938 128.429688 80.582031 129.789062 80.058594 C 130.980469 79.601562 132.019531 78.816406 132.792969 77.796875 C 133.5625 76.757812 134.195312 75.617188 134.667969 74.410156 C 135.058594 72.976562 135.269531 71.5 135.292969 70.015625 Z M 135.292969 70.015625 "/>
<path style=" stroke:none;fill-rule:nonzero;fill:rgb(12.54902%,16.470588%,26.666667%);fill-opacity:1;" d="M 152.066406 84.199219 C 150.640625 84.234375 149.222656 83.933594 147.933594 83.320312 C 146.710938 82.789062 145.605469 82.023438 144.679688 81.0625 C 143.785156 80.058594 143.066406 78.914062 142.554688 77.671875 C 141.550781 75.089844 141.550781 72.222656 142.554688 69.640625 C 143.066406 68.398438 143.785156 67.253906 144.679688 66.253906 C 145.574219 65.253906 146.6875 64.476562 147.933594 63.992188 C 149.242188 63.4375 150.644531 63.140625 152.066406 63.113281 C 153.492188 63.078125 154.90625 63.378906 156.195312 63.992188 C 157.375 64.597656 158.46875 65.359375 159.449219 66.253906 C 160.304688 67.210938 160.980469 68.316406 161.453125 69.515625 C 161.953125 70.75 162.207031 72.070312 162.203125 73.40625 L 162.203125 74.660156 L 145.433594 74.660156 C 145.488281 75.625 145.746094 76.5625 146.183594 77.421875 C 146.535156 78.226562 147.046875 78.953125 147.683594 79.554688 C 148.3125 80.128906 149.03125 80.597656 149.8125 80.9375 C 150.597656 81.292969 151.453125 81.464844 152.316406 81.4375 C 152.949219 81.417969 153.578125 81.332031 154.195312 81.1875 C 154.761719 81.054688 155.308594 80.84375 155.820312 80.558594 C 156.328125 80.296875 156.792969 79.957031 157.199219 79.554688 C 157.601562 79.175781 157.902344 78.703125 158.074219 78.175781 L 160.953125 78.929688 C 160.609375 79.671875 160.144531 80.351562 159.574219 80.9375 C 158.964844 81.546875 158.292969 82.09375 157.574219 82.566406 C 156.773438 83.019531 155.9375 83.398438 155.070312 83.695312 C 154.105469 84.046875 153.089844 84.214844 152.066406 84.199219 Z M 159.074219 72.277344 C 158.976562 71.363281 158.722656 70.46875 158.324219 69.640625 C 157.9375 68.855469 157.433594 68.132812 156.820312 67.507812 C 156.214844 66.90625 155.488281 66.4375 154.695312 66.125 C 153.09375 65.457031 151.289062 65.457031 149.6875 66.125 C 148.90625 66.464844 148.1875 66.933594 147.558594 67.507812 C 146.921875 68.109375 146.410156 68.835938 146.058594 69.640625 C 145.644531 70.457031 145.433594 71.359375 145.433594 72.277344 Z M 159.074219 72.277344 "/>
<path style=" stroke:none;fill-rule:nonzero;fill:rgb(12.54902%,16.470588%,26.666667%);fill-opacity:1;" d="M 176.722656 66.515625 C 175.113281 66.492188 173.539062 66.976562 172.214844 67.894531 C 170.9375 68.734375 169.972656 69.96875 169.460938 71.410156 L 169.460938 83.960938 L 166.082031 83.960938 L 166.082031 63.742188 L 169.210938 63.742188 L 169.210938 68.386719 C 169.886719 67.074219 170.824219 65.921875 171.964844 64.996094 C 173.011719 64.160156 174.269531 63.640625 175.59375 63.492188 L 176.722656 63.492188 Z M 176.722656 66.515625 "/>
<path style=" stroke:none;fill-rule:nonzero;fill:rgb(12.54902%,16.470588%,26.666667%);fill-opacity:1;" d="M 197.625 83.824219 L 194.246094 83.824219 L 194.246094 72.527344 C 194.339844 70.875 193.992188 69.230469 193.242188 67.757812 C 192.59375 66.742188 191.441406 66.164062 190.238281 66.253906 C 188.730469 66.269531 187.273438 66.800781 186.109375 67.757812 C 185.507812 68.238281 184.960938 68.785156 184.480469 69.390625 C 184.023438 70.035156 183.683594 70.757812 183.480469 71.523438 L 183.480469 83.695312 L 180.101562 83.695312 L 180.101562 63.492188 L 183.230469 63.492188 L 183.230469 67.882812 C 184.070312 66.457031 185.28125 65.285156 186.734375 64.496094 C 188.21875 63.640625 189.90625 63.207031 191.617188 63.238281 C 192.609375 63.226562 193.59375 63.441406 194.496094 63.867188 C 195.261719 64.28125 195.910156 64.886719 196.371094 65.625 C 196.855469 66.4375 197.191406 67.332031 197.375 68.261719 C 197.589844 69.375 197.675781 70.511719 197.625 71.648438 Z M 197.625 83.824219 "/>
<path style=" stroke:none;fill-rule:nonzero;fill:rgb(12.54902%,16.470588%,26.666667%);fill-opacity:1;" d="M 211.890625 84.199219 C 210.464844 84.234375 209.050781 83.933594 207.761719 83.320312 C 206.539062 82.789062 205.433594 82.023438 204.507812 81.0625 C 203.613281 80.058594 202.894531 78.914062 202.378906 77.671875 C 201.378906 75.089844 201.378906 72.222656 202.378906 69.640625 C 202.894531 68.398438 203.613281 67.253906 204.507812 66.253906 C 205.398438 65.253906 206.515625 64.476562 207.761719 63.992188 C 209.070312 63.4375 210.472656 63.140625 211.890625 63.113281 C 213.316406 63.078125 214.734375 63.378906 216.023438 63.992188 C 217.203125 64.597656 218.296875 65.359375 219.277344 66.253906 C 220.128906 67.210938 220.808594 68.316406 221.277344 69.515625 C 221.78125 70.75 222.035156 72.070312 222.03125 73.40625 L 222.03125 74.660156 L 205.257812 74.660156 C 205.316406 75.625 205.570312 76.5625 206.007812 77.421875 C 206.363281 78.226562 206.871094 78.953125 207.511719 79.554688 C 208.140625 80.128906 208.859375 80.597656 209.640625 80.9375 C 210.421875 81.292969 211.28125 81.464844 212.140625 81.4375 C 212.773438 81.417969 213.402344 81.332031 214.019531 81.1875 C 214.589844 81.054688 215.136719 80.84375 215.644531 80.558594 C 216.152344 80.296875 216.617188 79.957031 217.023438 79.554688 C 217.429688 79.175781 217.730469 78.703125 217.898438 78.175781 L 220.777344 78.929688 C 220.4375 79.671875 219.972656 80.351562 219.402344 80.9375 C 218.789062 81.546875 218.121094 82.09375 217.398438 82.566406 C 216.601562 83.019531 215.761719 83.398438 214.894531 83.695312 C 213.929688 84.035156 212.914062 84.207031 211.890625 84.199219 Z M 218.777344 72.277344 C 218.675781 71.363281 218.421875 70.46875 218.023438 69.640625 C 217.640625 68.855469 217.132812 68.132812 216.523438 67.507812 C 215.914062 66.90625 215.191406 66.4375 214.394531 66.125 C 212.792969 65.457031 210.992188 65.457031 209.386719 66.125 C 208.609375 66.464844 207.890625 66.933594 207.261719 67.507812 C 206.621094 68.109375 206.113281 68.835938 205.757812 69.640625 C 205.347656 70.457031 205.132812 71.359375 205.132812 72.277344 Z M 218.777344 72.277344 "/>
<path style=" stroke:none;fill-rule:nonzero;fill:rgb(12.54902%,16.470588%,26.666667%);fill-opacity:1;" d="M 233.792969 84.085938 C 232.488281 84.125 231.195312 83.824219 230.039062 83.207031 C 228.9375 82.597656 227.925781 81.839844 227.035156 80.949219 C 226.175781 80.015625 225.535156 78.898438 225.160156 77.683594 C 224.699219 76.441406 224.484375 75.121094 224.53125 73.792969 C 224.546875 72.433594 224.757812 71.082031 225.160156 69.777344 C 225.632812 68.570312 226.265625 67.433594 227.035156 66.390625 C 227.832031 65.398438 228.867188 64.621094 230.039062 64.132812 C 231.214844 63.574219 232.496094 63.277344 233.792969 63.253906 C 235.351562 63.1875 236.886719 63.628906 238.175781 64.507812 C 239.398438 65.355469 240.457031 66.417969 241.304688 67.644531 L 241.304688 63.628906 L 244.308594 63.628906 L 244.308594 83.710938 C 244.351562 85.003906 244.09375 86.292969 243.558594 87.472656 C 243.0625 88.578125 242.285156 89.53125 241.304688 90.234375 C 240.351562 91.039062 239.242188 91.636719 238.050781 91.992188 C 236.753906 92.394531 235.402344 92.605469 234.042969 92.621094 C 232.105469 92.6875 230.175781 92.300781 228.414062 91.492188 C 226.976562 90.683594 225.738281 89.570312 224.78125 88.226562 L 226.785156 86.46875 C 227.546875 87.636719 228.636719 88.554688 229.914062 89.105469 C 231.203125 89.71875 232.617188 90.019531 234.042969 89.984375 C 234.933594 89.984375 235.820312 89.855469 236.671875 89.609375 C 237.464844 89.414062 238.195312 89.027344 238.800781 88.476562 C 239.433594 87.96875 239.945312 87.324219 240.304688 86.597656 C 240.683594 85.726562 240.855469 84.78125 240.804688 83.835938 L 240.804688 80.320312 C 240.414062 80.917969 239.949219 81.46875 239.425781 81.953125 C 238.894531 82.441406 238.308594 82.863281 237.675781 83.207031 C 237.0625 83.585938 236.382812 83.84375 235.671875 83.960938 C 235.171875 83.949219 234.546875 84.085938 233.792969 84.085938 Z M 234.796875 81.199219 C 235.519531 81.195312 236.242188 81.070312 236.921875 80.824219 C 237.574219 80.539062 238.203125 80.203125 238.800781 79.820312 C 239.382812 79.445312 239.855469 78.925781 240.175781 78.3125 C 240.527344 77.820312 240.785156 77.269531 240.929688 76.679688 L 240.929688 70.910156 C 240.707031 70.199219 240.320312 69.554688 239.800781 69.027344 C 239.367188 68.460938 238.863281 67.957031 238.300781 67.519531 C 237.714844 67.109375 237.085938 66.773438 236.421875 66.515625 C 235.785156 66.269531 235.105469 66.140625 234.421875 66.140625 C 233.46875 66.140625 232.527344 66.355469 231.667969 66.765625 C 230.875 67.242188 230.15625 67.835938 229.539062 68.523438 C 228.933594 69.273438 228.46875 70.121094 228.164062 71.035156 C 227.875 71.929688 227.707031 72.855469 227.660156 73.792969 C 227.632812 74.78125 227.804688 75.761719 228.164062 76.679688 C 228.542969 77.546875 229.046875 78.351562 229.664062 79.066406 C 230.285156 79.714844 231.003906 80.265625 231.792969 80.699219 C 232.761719 81.023438 233.773438 81.1875 234.796875 81.1875 Z M 235.796875 58.105469 C 236.390625 58.121094 236.953125 57.839844 237.300781 57.355469 C 237.695312 56.796875 237.953125 56.152344 238.050781 55.472656 L 239.925781 55.472656 C 239.921875 56.078125 239.796875 56.675781 239.550781 57.230469 C 239.335938 57.730469 239.039062 58.199219 238.675781 58.609375 C 238.320312 59.042969 237.839844 59.347656 237.300781 59.488281 C 236.269531 59.984375 235.074219 59.984375 234.042969 59.488281 C 232.996094 59.105469 232.171875 58.28125 231.792969 57.230469 C 231.535156 56.679688 231.40625 56.078125 231.417969 55.472656 L 233.417969 55.472656 C 233.433594 56.148438 233.652344 56.804688 234.042969 57.355469 C 234.519531 57.804688 235.144531 58.070312 235.796875 58.09375 Z M 235.796875 58.105469 "/>
<path style=" stroke:none;fill-rule:nonzero;fill:rgb(12.54902%,16.470588%,26.666667%);fill-opacity:1;" d="M 249.941406 59.726562 L 249.941406 55.460938 L 253.320312 55.460938 L 253.320312 59.726562 Z M 249.941406 83.824219 L 249.941406 63.617188 L 253.320312 63.617188 L 253.320312 83.824219 Z M 249.941406 83.824219 "/>
</g>
</svg>
